# xmcd
#
# Track frame offsets: 
#        150
#        1951
#        3103
#        4583
#        6333
#        18200
#        29974
#        35300
#        35815
#        41242
#        43178
#        49822
#        51356
#        61213
#        64484
#        77906
#        85641
#        89491
#        95342
#        114508
#        121574
#        127044
#        136268
#        143524
#        153690
#        156503
#        170655
#        174132
#        181087
#        184211
#        190527
#        191297
#
# Disc length: 2726 seconds
#
# Revision: 1
# Processed by: cddbd v1.5.2PL0 Copyright (c) Steve Scherf et al.
# Submitted via: ExactAudioCopyFreeDBPlugin 1.0
#
DISCID=a50aa420
DTITLE=Øystein Sunde - Live På Svalbard - 1982
DYEAR=2012
DGENRE=Norsk
TTITLE0=På Vegne Av Væfæsjeskommiteen
TTITLE1=Mesterkokken På Grand Hotell
TTITLE2=En Kjærlighetssang
TTITLE3=Verandan Der
TTITLE4=En Talking Blues, Vær Så Snill?
TTITLE5=Svigerfars Motorsag
TTITLE6=Sigurd Jorsalfar
TTITLE7=En Barnevise
TTITLE8=Hvis Dine Ører Henger Ned
TTITLE9=Det Må Jeg Bare Huske På
TTITLE10=Det Året Det Var Så Bratt
TTITLE11=Fjeld Og Sareussen Inn Fra Venstre
TTITLE12=Barkebille Boogie
TTITLE13=Tilbake Til Skogen
TTITLE14=Modællfly Og Radiostyrt
TTITLE15=Forbikjøringen
TTITLE16=Banjo Er Et Muntert Instrument
TTITLE17=Foggy Mountain Breakdown
TTITLE18=Liten Og Grønn
TTITLE19=En Trommesolo
TTITLE20=Trio Martini
TTITLE21=Saus Over Bordet
TTITLE22=Vi Kjøper Bukse
TTITLE23=2003, En Butikk-Odyssé
TTITLE24=Pels På Do
TTITLE25=Vi Pusser Opp På Badet (Sjarmør I Pels Nr 1)
TTITLE26=Intro Je rusla Hjem
TTITLE27=Je Rusla Hjem
TTITLE28=Ticket To Ride
TTITLE29=Jeg Rusler Fortsatt
TTITLE30=En Til Med Det Samma Vi Står Her
TTITLE31=Sjæddåvvbandet
EXTD=
EXTT0=
EXTT1=
EXTT2=
EXTT3=
EXTT4=
EXTT5=
EXTT6=
EXTT7=
EXTT8=
EXTT9=
EXTT10=
EXTT11=
EXTT12=
EXTT13=
EXTT14=
EXTT15=
EXTT16=
EXTT17=
EXTT18=
EXTT19=
EXTT20=
EXTT21=
EXTT22=
EXTT23=
EXTT24=
EXTT25=
EXTT26=
EXTT27=
EXTT28=
EXTT29=
EXTT30=
EXTT31=
PLAYORDER=
